<svg width="481" height="435" viewBox="0 0 481 435" fill="none" xmlns="http://www.w3.org/2000/svg">
<g filter="url(#filter0_d_716_34)">
<path d="M212.885 300.431L199.19 313.93C199.015 314.099 198.89 314.313 198.829 314.549C198.768 314.784 198.774 315.032 198.844 315.265C198.915 315.498 199.049 315.706 199.231 315.868C199.413 316.029 199.636 316.137 199.875 316.18C231.479 321.082 263.825 317.033 293.245 304.491C293.459 304.372 293.637 304.199 293.762 303.988C293.886 303.777 293.951 303.537 293.951 303.292C293.951 303.048 293.886 302.808 293.762 302.597C293.637 302.386 293.459 302.212 293.245 302.094L276.469 291.921C276.294 291.834 276.101 291.79 275.906 291.79C275.711 291.79 275.519 291.834 275.344 291.921C255.699 299.127 234.711 301.932 213.863 300.138C213.689 300.113 213.511 300.127 213.342 300.177C213.173 300.228 213.018 300.315 212.885 300.431Z" fill="white"/>
<path d="M420.412 39.3964L392.191 53.6294L319.412 90.3121C319.259 90.3858 319.092 90.424 318.923 90.424C318.753 90.424 318.586 90.3858 318.434 90.3121C288.764 81.1425 257.066 80.8196 227.216 89.3828C226.91 89.4591 226.588 89.4278 226.303 89.2942C226.018 89.1605 225.788 88.9328 225.651 88.6492L213.668 61.1616C213.547 60.9082 213.35 60.6996 213.103 60.5662C212.856 60.4328 212.573 60.3815 212.295 60.4196C212.017 60.4578 211.759 60.5834 211.557 60.7784C211.355 60.9733 211.221 61.2275 211.173 61.5039L207.896 82.9267L205.842 96.6216L203.983 108.556L202.614 117.8L195.62 163.384C195.588 163.659 195.465 163.915 195.27 164.11C195.074 164.305 194.818 164.429 194.544 164.46L135.851 173.802C135.614 173.842 135.37 173.817 135.146 173.729C134.922 173.64 134.727 173.493 134.581 173.301C134.435 173.11 134.344 172.882 134.318 172.643C134.292 172.404 134.331 172.162 134.433 171.944C147.783 145.799 169.421 124.815 195.962 112.273C196.157 112.191 196.324 112.055 196.445 111.882C196.566 111.709 196.636 111.506 196.647 111.295L197.919 102.393C197.949 102.159 197.916 101.922 197.823 101.706C197.73 101.489 197.582 101.301 197.392 101.162C197.203 101.022 196.979 100.935 196.745 100.911C196.511 100.887 196.274 100.926 196.06 101.024C159.72 118.387 132.721 145.825 118.977 175.905C118.901 176.099 118.775 176.269 118.612 176.398C118.449 176.527 118.254 176.61 118.048 176.639L100 179.525L107.239 183.829L114.233 187.986L126.363 195.225L138.492 202.415L184.811 230C185.027 230.153 185.2 230.36 185.311 230.6C185.423 230.84 185.469 231.106 185.446 231.37L176.691 288.595C176.664 288.799 176.59 288.995 176.473 289.165C176.357 289.336 176.202 289.477 176.021 289.577C175.84 289.677 175.639 289.733 175.432 289.741C175.226 289.748 175.021 289.708 174.833 289.622C155.793 281.069 140.452 265.971 131.596 247.07C125.411 233.277 123.159 218.043 125.091 203.051C125.124 202.799 125.081 202.544 124.967 202.318C124.854 202.091 124.676 201.903 124.455 201.779L113.891 195.421C113.712 195.315 113.512 195.252 113.305 195.236C113.099 195.219 112.891 195.249 112.698 195.325C112.505 195.4 112.331 195.518 112.191 195.671C112.05 195.823 111.945 196.005 111.885 196.203C106.416 216.765 108.142 238.579 116.776 258.026C127.978 281.629 148.028 299.869 172.583 308.795C172.849 308.902 173.07 309.095 173.212 309.343C173.354 309.592 173.408 309.881 173.366 310.164L169.844 333.446C169.814 333.718 169.869 333.993 170.002 334.233C170.135 334.472 170.339 334.664 170.587 334.783C170.834 334.901 171.112 334.939 171.382 334.893C171.652 334.846 171.901 334.716 172.094 334.522L183.979 321.56L190.533 314.419L204.668 299.013L220.564 281.698L237.732 262.966C237.919 262.702 238.197 262.516 238.513 262.444C238.829 262.372 239.16 262.418 239.443 262.574L266.197 278.519L283.267 288.693L302.538 300.186L304.788 301.507L319.95 310.555C320.19 310.688 320.465 310.743 320.737 310.712C321.01 310.682 321.266 310.567 321.47 310.384C321.674 310.201 321.816 309.96 321.877 309.692C321.938 309.425 321.914 309.146 321.809 308.893L315.548 294.562C315.433 294.272 315.424 293.952 315.522 293.657C315.621 293.361 315.82 293.11 316.086 292.948C375.512 257.83 404.418 194.638 381.235 143.576C378.873 138.347 376.024 133.352 372.724 128.658C372.601 128.496 372.442 128.364 372.26 128.274C372.077 128.183 371.876 128.136 371.673 128.136C371.469 128.136 371.268 128.183 371.086 128.274C370.903 128.364 370.744 128.496 370.621 128.658L353.845 147.978L355.019 150.521C374.24 192.877 353.698 244.233 308.701 274.851C308.538 274.962 308.353 275.036 308.158 275.069C307.964 275.102 307.765 275.093 307.574 275.042C307.384 274.991 307.207 274.899 307.055 274.773C306.903 274.648 306.781 274.491 306.695 274.313L281.506 216.501C281.411 216.265 281.384 216.007 281.427 215.757C281.47 215.506 281.583 215.273 281.751 215.082L293.881 201.974L310.706 183.927L338.145 154.238L350.177 141.228L367.784 122.202L372.333 117.311L430.194 54.6565L442.128 41.7442L460.127 22.18C460.324 21.9506 460.436 21.6606 460.444 21.3586C460.453 21.0565 460.358 20.7606 460.175 20.5202C459.992 20.2799 459.732 20.1096 459.438 20.0378C459.145 19.966 458.835 19.997 458.562 20.1257L420.412 39.3964ZM402.07 68.7426L367.051 106.501L359.861 114.278L343.329 132.131L330.368 146.119L256.366 225.892C256.226 226.101 256.15 226.348 256.15 226.601C256.15 226.854 256.226 227.1 256.366 227.31L261.257 238.657C261.358 238.914 261.375 239.195 261.308 239.462C261.24 239.729 261.091 239.968 260.88 240.146C260.67 240.324 260.41 240.431 260.135 240.454C259.861 240.476 259.586 240.413 259.35 240.271L234.895 225.598C234.664 225.399 234.369 225.289 234.063 225.289C233.758 225.289 233.463 225.399 233.232 225.598L227.069 232.299C226.932 232.439 226.828 232.609 226.767 232.795C226.706 232.982 226.689 233.18 226.718 233.374C226.746 233.569 226.819 233.754 226.931 233.915C227.043 234.076 227.191 234.21 227.363 234.304L286.446 269.52H286.838V269.08L269.572 229.413C269.418 229.209 269.334 228.96 269.334 228.704C269.334 228.448 269.418 228.199 269.572 227.995L273.338 223.886L291.337 265.216L298.234 281.014L299.799 284.633L295.886 282.285L281.213 273.53L222.52 238.559C222.297 238.363 222.01 238.255 221.713 238.255C221.416 238.255 221.13 238.363 220.906 238.559L212.787 247.363C212.594 247.558 212.345 247.688 212.075 247.734C211.805 247.781 211.527 247.743 211.28 247.624C211.033 247.506 210.829 247.314 210.695 247.074C210.562 246.835 210.507 246.56 210.537 246.287L215.428 214.202C215.479 213.943 215.445 213.674 215.33 213.436C215.216 213.198 215.027 213.003 214.793 212.881L207.407 208.48C207.222 208.374 207.015 208.315 206.802 208.307C206.59 208.299 206.379 208.343 206.187 208.434C205.995 208.525 205.827 208.662 205.699 208.831C205.571 209.001 205.486 209.199 205.451 209.409L194.984 277.883L194.006 284.486L199.582 278.421L222.765 253.135C222.996 252.956 223.28 252.859 223.572 252.859C223.864 252.859 224.148 252.956 224.379 253.135L227.46 254.993C227.632 255.088 227.78 255.221 227.892 255.383C228.004 255.544 228.077 255.729 228.105 255.923C228.134 256.117 228.117 256.316 228.056 256.502C227.995 256.689 227.891 256.859 227.754 256.999L207.065 279.546L192.392 295.687L185.397 303.268L186.816 293.975L189.359 277.443L200.315 205.447C200.363 205.193 200.332 204.931 200.228 204.695C200.123 204.459 199.949 204.261 199.728 204.127L188.136 197.23C187.918 197.085 187.748 196.877 187.648 196.634C187.548 196.392 187.523 196.125 187.575 195.867C187.628 195.61 187.756 195.375 187.943 195.19C188.13 195.006 188.368 194.882 188.626 194.834L218.314 189.943C218.589 189.899 218.843 189.772 219.044 189.58C219.245 189.388 219.383 189.139 219.439 188.866L220.809 179.769C220.842 179.562 220.826 179.351 220.762 179.151C220.698 178.952 220.587 178.771 220.439 178.623C220.291 178.474 220.11 178.364 219.91 178.299C219.711 178.235 219.499 178.219 219.292 178.253L155.709 188.377C155.437 188.415 155.184 188.536 154.985 188.724C154.786 188.912 154.649 189.158 154.596 189.426C154.542 189.695 154.573 189.974 154.685 190.224C154.797 190.474 154.984 190.684 155.22 190.823L188.185 210.387C188.42 210.509 188.608 210.703 188.723 210.942C188.838 211.18 188.872 211.448 188.821 211.708L188.234 215.62C188.203 215.837 188.117 216.043 187.986 216.219C187.855 216.395 187.682 216.535 187.483 216.627C187.284 216.72 187.065 216.761 186.846 216.747C186.627 216.734 186.415 216.666 186.229 216.55L136.732 187.204C136.513 187.058 136.343 186.85 136.243 186.608C136.143 186.365 136.118 186.098 136.17 185.841C136.223 185.584 136.351 185.348 136.538 185.164C136.725 184.98 136.963 184.855 137.221 184.807L221.347 171.406C221.625 171.383 221.885 171.263 222.083 171.066C222.28 170.868 222.4 170.607 222.423 170.329L224.281 158.249C224.336 157.975 224.476 157.726 224.681 157.537C224.886 157.348 225.145 157.229 225.422 157.196C225.699 157.163 225.979 157.219 226.222 157.356C226.465 157.492 226.659 157.702 226.776 157.955L238.905 185.785C239.034 186.045 239.238 186.259 239.492 186.399C239.745 186.539 240.036 186.598 240.324 186.568L248.639 185.247C248.834 185.205 249.018 185.12 249.178 184.999C249.337 184.878 249.468 184.724 249.562 184.546C249.655 184.369 249.708 184.174 249.718 183.973C249.727 183.773 249.693 183.574 249.617 183.389L221.885 119.805C221.764 119.552 221.566 119.343 221.32 119.21C221.073 119.076 220.79 119.025 220.512 119.063C220.234 119.101 219.976 119.227 219.774 119.422C219.572 119.617 219.438 119.871 219.39 120.147L213.276 160.303C213.22 160.575 213.083 160.824 212.882 161.016C212.681 161.208 212.426 161.335 212.151 161.379L208.874 161.917C208.669 161.954 208.458 161.939 208.26 161.875C208.062 161.811 207.882 161.699 207.737 161.549C207.592 161.4 207.486 161.217 207.429 161.016C207.371 160.816 207.364 160.605 207.407 160.401L214.157 116.039L216.015 103.909L217.385 94.763L220.711 102.442L226.042 114.572L255.926 183.046C256.034 183.308 256.23 183.525 256.48 183.658C256.729 183.792 257.018 183.835 257.296 183.78L265.611 182.459C265.809 182.43 265.998 182.356 266.163 182.242C266.329 182.129 266.466 181.979 266.565 181.805C266.664 181.63 266.722 181.436 266.735 181.236C266.747 181.035 266.714 180.835 266.638 180.65L231.96 101.17C231.884 100.985 231.85 100.785 231.859 100.585C231.869 100.385 231.922 100.19 232.015 100.012C232.109 99.8353 232.24 99.6807 232.399 99.5596C232.559 99.4385 232.743 99.3539 232.938 99.3116C252.938 95.1066 273.635 95.5417 293.44 100.583C293.693 100.666 293.916 100.821 294.082 101.028C294.248 101.235 294.35 101.486 294.376 101.751C294.402 102.015 294.35 102.281 294.228 102.517C294.105 102.753 293.917 102.947 293.685 103.078L249.226 125.625C248.936 125.791 248.717 126.056 248.609 126.371C248.501 126.686 248.512 127.029 248.639 127.337L252.258 135.603C252.331 135.767 252.437 135.914 252.569 136.036C252.701 136.158 252.857 136.251 253.026 136.31C253.195 136.37 253.375 136.394 253.554 136.382C253.733 136.37 253.908 136.321 254.068 136.239L300.141 113.007L311.048 107.577L333.449 96.2792L357.122 84.3451L369.545 78.1334L397.717 63.9495L414.102 55.6836L402.07 68.7426Z" fill="white"/>
<path d="M357.66 91.0946L340.199 99.8985L317.7 110.952L304.348 117.702L256.318 141.864C256.012 142.012 255.775 142.273 255.656 142.592C255.538 142.911 255.547 143.263 255.682 143.575L259.35 151.841C259.418 152.004 259.519 152.15 259.647 152.271C259.774 152.392 259.925 152.486 260.091 152.546C260.256 152.605 260.432 152.63 260.608 152.618C260.784 152.607 260.955 152.558 261.111 152.477L312.809 126.75L329.292 118.484L335.161 115.501L331.102 119.903L318.776 133.206L249.03 208.43C248.9 208.644 248.832 208.89 248.832 209.14C248.832 209.39 248.9 209.635 249.03 209.849L252.796 218.457C252.88 218.664 253.015 218.846 253.189 218.987C253.362 219.127 253.569 219.221 253.788 219.261C254.008 219.3 254.235 219.282 254.446 219.21C254.657 219.138 254.847 219.014 254.997 218.848L307.918 161.525L326.553 141.374L339.563 127.288L355.557 110.023L364.703 100.241L381.235 82.3396C381.37 82.24 381.483 82.1149 381.57 81.9713C381.657 81.8277 381.714 81.6685 381.739 81.5027C381.764 81.337 381.756 81.1679 381.716 81.0052C381.675 80.8425 381.603 80.6893 381.504 80.5544C381.404 80.4195 381.279 80.3055 381.135 80.219C380.992 80.1325 380.833 80.0751 380.667 80.0501C380.501 80.0251 380.332 80.0331 380.169 80.0735C380.006 80.1138 379.853 80.1858 379.718 80.2854L360.154 90.0674L357.66 91.0946Z" fill="white"/>
</g>
<defs>
<filter id="filter0_d_716_34" x="0" y="0" width="480.445" height="434.912" filterUnits="userSpaceOnUse" color-interpolation-filters="sRGB">
<feFlood flood-opacity="0" result="BackgroundImageFix"/>
<feColorMatrix in="SourceAlpha" type="matrix" values="0 0 0 0 0 0 0 0 0 0 0 0 0 0 0 0 0 0 127 0" result="hardAlpha"/>
<feOffset dx="-40" dy="40"/>
<feGaussianBlur stdDeviation="30"/>
<feComposite in2="hardAlpha" operator="out"/>
<feColorMatrix type="matrix" values="0 0 0 0 0 0 0 0 0 0 0 0 0 0 0 0 0 0 0.4 0"/>
<feBlend mode="normal" in2="BackgroundImageFix" result="effect1_dropShadow_716_34"/>
<feBlend mode="normal" in="SourceGraphic" in2="effect1_dropShadow_716_34" result="shape"/>
</filter>
</defs>
</svg>
