<svg width="234" height="212" viewBox="0 0 234 212" fill="none" xmlns="http://www.w3.org/2000/svg">
<g filter="url(#filter0_d_101_129)">
<path d="M103.691 145.865L97.0562 152.405C96.9714 152.487 96.9109 152.591 96.8813 152.705C96.8517 152.819 96.8543 152.939 96.8886 153.052C96.9229 153.165 96.9877 153.266 97.0758 153.344C97.1639 153.422 97.2719 153.475 97.388 153.495C112.7 155.87 128.371 153.908 142.624 147.832C142.728 147.775 142.815 147.69 142.875 147.588C142.935 147.486 142.967 147.37 142.967 147.251C142.967 147.133 142.935 147.017 142.875 146.914C142.815 146.812 142.728 146.728 142.624 146.671L134.497 141.742C134.412 141.7 134.319 141.678 134.224 141.678C134.13 141.678 134.036 141.7 133.952 141.742C124.434 145.234 114.266 146.593 104.165 145.723C104.081 145.711 103.994 145.718 103.913 145.742C103.831 145.767 103.755 145.809 103.691 145.865Z" fill="white"/>
<path d="M204.235 19.3973L190.562 26.293L155.302 44.0653C155.228 44.101 155.147 44.1195 155.065 44.1195C154.983 44.1195 154.902 44.101 154.828 44.0653C140.454 39.6227 125.096 39.4663 110.634 43.6151C110.486 43.652 110.33 43.6369 110.192 43.5721C110.054 43.5074 109.942 43.397 109.876 43.2596L104.071 29.9423C104.012 29.8195 103.916 29.7184 103.797 29.6538C103.677 29.5892 103.54 29.5643 103.406 29.5828C103.271 29.6013 103.146 29.6621 103.048 29.7566C102.95 29.851 102.885 29.9742 102.862 30.1081L101.274 40.4872L100.279 47.1222L99.3786 52.9041L98.7151 57.3827L95.3265 79.4678C95.3113 79.6008 95.2515 79.7247 95.1568 79.8194C95.0622 79.9141 94.9382 79.9739 94.8052 79.9891L66.3695 84.5151C66.2545 84.5346 66.1364 84.5223 66.0279 84.4795C65.9194 84.4368 65.8246 84.3652 65.7539 84.2725C65.6831 84.1798 65.6391 84.0695 65.6264 83.9535C65.6138 83.8376 65.6331 83.7204 65.6823 83.6147C72.1504 70.948 82.6334 60.7816 95.4924 54.705C95.5866 54.6651 95.6677 54.5995 95.7263 54.5157C95.785 54.4319 95.8189 54.3333 95.8242 54.2311L96.4403 49.9183C96.4548 49.8052 96.4388 49.6902 96.394 49.5853C96.3491 49.4804 96.2771 49.3894 96.1852 49.3217C96.0934 49.254 95.9851 49.2121 95.8716 49.2004C95.7581 49.1886 95.6436 49.2074 95.5398 49.2548C77.9333 57.6671 64.8529 70.9608 58.1942 85.5341C58.1574 85.6279 58.0963 85.7102 58.0172 85.7727C57.9381 85.8352 57.8438 85.8755 57.744 85.8895L49 87.2876L52.5071 89.3729L55.8957 91.3871L61.7724 94.8941L67.6491 98.3775L90.0896 111.742C90.1945 111.816 90.2781 111.917 90.3321 112.033C90.3862 112.149 90.4088 112.278 90.3977 112.406L86.156 140.131C86.1428 140.23 86.1066 140.325 86.0502 140.407C85.9938 140.49 85.9188 140.558 85.8312 140.606C85.7437 140.655 85.646 140.682 85.546 140.686C85.446 140.69 85.3465 140.67 85.2555 140.628C76.0308 136.485 68.5982 129.17 64.3079 120.012C61.3111 113.33 60.2204 105.949 61.1563 98.6856C61.1721 98.5639 61.1513 98.4402 61.0964 98.3304C61.0415 98.2207 60.9551 98.1298 60.8482 98.0695L55.7298 94.9889C55.6433 94.938 55.5463 94.9073 55.4462 94.8993C55.3461 94.8913 55.2455 94.9061 55.152 94.9426C55.0584 94.9791 54.9744 95.0364 54.9062 95.1101C54.838 95.1838 54.7874 95.272 54.7582 95.3681C52.1087 105.33 52.9448 115.899 57.1279 125.32C62.5551 136.756 72.269 145.593 84.1655 149.917C84.2942 149.969 84.4016 150.063 84.4704 150.183C84.5392 150.304 84.5653 150.444 84.5446 150.581L82.8385 161.86C82.8238 161.992 82.8506 162.126 82.9151 162.242C82.9796 162.358 83.0785 162.451 83.1983 162.508C83.3181 162.565 83.4528 162.584 83.5836 162.561C83.7145 162.539 83.835 162.476 83.9286 162.382L89.6868 156.102L92.8621 152.642L99.7104 145.178L107.412 136.789L115.729 127.714C115.82 127.586 115.955 127.496 116.108 127.461C116.261 127.426 116.421 127.449 116.559 127.524L129.52 135.249L137.791 140.178L147.127 145.747L148.217 146.386L155.563 150.77C155.679 150.835 155.812 150.861 155.944 150.846C156.076 150.831 156.2 150.776 156.299 150.687C156.398 150.599 156.467 150.482 156.497 150.352C156.526 150.223 156.514 150.087 156.463 149.965L153.43 143.022C153.374 142.881 153.37 142.726 153.418 142.583C153.465 142.44 153.562 142.318 153.691 142.24C182.482 125.226 196.487 94.6098 185.254 69.8707C184.11 67.3373 182.73 64.9175 181.131 62.6433C181.072 62.5647 180.995 62.501 180.906 62.4572C180.818 62.4133 180.72 62.3905 180.622 62.3905C180.523 62.3905 180.426 62.4133 180.337 62.4572C180.249 62.501 180.172 62.5647 180.112 62.6433L171.984 72.0034L172.553 73.2356C181.866 93.7567 171.913 118.638 150.113 133.472C150.034 133.526 149.944 133.562 149.85 133.578C149.756 133.594 149.659 133.589 149.567 133.564C149.475 133.54 149.389 133.495 149.316 133.434C149.242 133.373 149.183 133.297 149.141 133.211L136.937 105.202C136.891 105.088 136.878 104.963 136.899 104.842C136.92 104.72 136.974 104.607 137.056 104.515L142.933 98.1643L151.084 89.4203L164.378 75.0366L170.207 68.7333L178.738 59.5154L180.942 57.1457L208.975 26.7906L214.757 20.5348L223.477 11.0562C223.572 10.945 223.626 10.8046 223.631 10.6582C223.635 10.5119 223.589 10.3685 223.5 10.2521C223.411 10.1356 223.285 10.0531 223.143 10.0183C223.001 9.98354 222.851 9.99856 222.719 10.0609L204.235 19.3973ZM195.349 33.6152L178.383 51.9088L174.899 55.6765L166.89 64.3258L160.61 71.1029L124.757 109.752C124.689 109.853 124.653 109.973 124.653 110.095C124.653 110.218 124.689 110.337 124.757 110.439L127.127 115.937C127.176 116.061 127.184 116.197 127.151 116.326C127.119 116.456 127.046 116.572 126.944 116.658C126.843 116.744 126.716 116.796 126.583 116.807C126.451 116.818 126.317 116.787 126.203 116.719L114.355 109.61C114.243 109.513 114.1 109.46 113.952 109.46C113.804 109.46 113.661 109.513 113.549 109.61L110.563 112.856C110.497 112.924 110.447 113.006 110.417 113.097C110.388 113.187 110.379 113.283 110.393 113.377C110.407 113.471 110.442 113.561 110.496 113.639C110.551 113.717 110.622 113.782 110.706 113.828L139.331 130.889H139.52V130.676L131.156 111.458C131.081 111.359 131.04 111.238 131.04 111.114C131.04 110.99 131.081 110.87 131.156 110.771L132.98 108.78L141.7 128.804L145.042 136.458L145.8 138.211L143.904 137.074L136.795 132.832L108.36 115.889C108.251 115.794 108.112 115.742 107.969 115.742C107.825 115.742 107.686 115.794 107.578 115.889L103.644 120.155C103.55 120.249 103.43 120.312 103.299 120.334C103.168 120.357 103.034 120.338 102.914 120.281C102.794 120.224 102.695 120.131 102.631 120.015C102.566 119.898 102.539 119.765 102.554 119.633L104.924 104.088C104.948 103.963 104.932 103.833 104.876 103.717C104.821 103.602 104.729 103.508 104.616 103.449L101.037 101.316C100.948 101.265 100.847 101.236 100.744 101.232C100.641 101.229 100.539 101.25 100.446 101.294C100.353 101.338 100.272 101.404 100.21 101.486C100.148 101.568 100.107 101.665 100.09 101.766L95.0185 134.941L94.5445 138.14L97.2459 135.202L108.478 122.951C108.59 122.864 108.728 122.817 108.869 122.817C109.011 122.817 109.148 122.864 109.26 122.951L110.753 123.851C110.836 123.897 110.908 123.962 110.962 124.04C111.016 124.118 111.052 124.208 111.065 124.302C111.079 124.396 111.071 124.492 111.041 124.582C111.012 124.673 110.962 124.755 110.895 124.823L100.871 135.747L93.7626 143.567L90.374 147.24L91.0612 142.737L92.2934 134.728L97.6014 99.8467C97.6245 99.7238 97.6097 99.5967 97.5589 99.4825C97.5081 99.3682 97.4238 99.2721 97.317 99.2069L91.701 95.8657C91.5952 95.7951 91.5128 95.6946 91.4643 95.577C91.4159 95.4594 91.4036 95.3301 91.4291 95.2055C91.4545 95.0808 91.5165 94.9666 91.6071 94.8774C91.6978 94.7882 91.8129 94.728 91.9379 94.7046L106.322 92.3349C106.455 92.3136 106.578 92.2523 106.675 92.1592C106.773 92.0661 106.84 91.9455 106.867 91.8136L107.53 87.4061C107.547 87.3059 107.539 87.2033 107.508 87.1067C107.477 87.0101 107.423 86.9223 107.351 86.8505C107.279 86.7788 107.192 86.7251 107.095 86.694C106.998 86.6628 106.896 86.6551 106.796 86.6715L75.9902 91.5767C75.8587 91.5949 75.7361 91.6537 75.6395 91.7447C75.5429 91.8358 75.4769 91.9547 75.4509 92.0849C75.4249 92.2151 75.44 92.3502 75.4942 92.4714C75.5483 92.5926 75.6389 92.694 75.7533 92.7615L91.7247 102.24C91.8382 102.299 91.9296 102.393 91.9852 102.509C92.0407 102.624 92.0574 102.754 92.0327 102.88L91.7484 104.776C91.733 104.881 91.6916 104.98 91.6281 105.066C91.5645 105.151 91.4807 105.219 91.3843 105.263C91.2879 105.308 91.1819 105.328 91.0758 105.321C90.9697 105.315 90.867 105.282 90.7768 105.226L66.796 91.0079C66.6902 90.9374 66.6078 90.8369 66.5594 90.7193C66.511 90.6017 66.4987 90.4723 66.5241 90.3477C66.5495 90.2231 66.6115 90.1089 66.7022 90.0197C66.7928 89.9304 66.908 89.8703 67.033 89.8468L107.791 83.354C107.926 83.3432 108.052 83.2848 108.147 83.1893C108.243 83.0937 108.301 82.9673 108.312 82.8327L109.213 76.9796C109.239 76.8472 109.307 76.7265 109.406 76.6349C109.505 76.5433 109.631 76.4855 109.765 76.4697C109.899 76.4539 110.035 76.481 110.153 76.5471C110.271 76.6131 110.365 76.7148 110.421 76.8375L116.298 90.3207C116.36 90.4465 116.459 90.5503 116.582 90.6181C116.705 90.6858 116.846 90.7144 116.985 90.6999L121.013 90.0601C121.108 90.0396 121.197 89.9986 121.275 89.9399C121.352 89.8813 121.416 89.8064 121.461 89.7205C121.506 89.6347 121.532 89.5399 121.536 89.443C121.541 89.3461 121.524 89.2494 121.487 89.1596L108.052 58.3543C107.993 58.2315 107.897 58.1305 107.778 58.0658C107.658 58.0012 107.521 57.9763 107.387 57.9948C107.252 58.0133 107.127 58.0742 107.029 58.1686C106.931 58.2631 106.866 58.3862 106.843 58.5201L103.881 77.9749C103.854 78.1068 103.787 78.2274 103.69 78.3205C103.592 78.4137 103.469 78.4749 103.336 78.4962L101.748 78.7569C101.649 78.7746 101.547 78.7676 101.451 78.7366C101.354 78.7055 101.268 78.6514 101.197 78.5788C101.127 78.5062 101.076 78.4176 101.048 78.3205C101.02 78.2235 101.016 78.1211 101.037 78.0223L104.307 56.5296L105.208 50.6529L105.871 46.2217L107.483 49.942L110.066 55.8188L124.544 88.9937C124.597 89.1207 124.691 89.2256 124.812 89.2904C124.933 89.3552 125.073 89.376 125.208 89.3492L129.236 88.7094C129.332 88.6951 129.424 88.6592 129.504 88.6042C129.584 88.5493 129.651 88.4768 129.699 88.3923C129.747 88.3078 129.775 88.2135 129.781 88.1165C129.787 88.0195 129.771 87.9224 129.734 87.8326L112.933 49.3259C112.896 49.2362 112.879 49.1394 112.884 49.0425C112.889 48.9456 112.914 48.8509 112.96 48.765C113.005 48.6791 113.068 48.6043 113.146 48.5456C113.223 48.4869 113.312 48.4459 113.407 48.4254C123.096 46.3882 133.124 46.599 142.719 49.0416C142.842 49.0817 142.95 49.1566 143.03 49.257C143.111 49.3574 143.16 49.4791 143.173 49.6072C143.185 49.7353 143.16 49.8642 143.101 49.9784C143.041 50.0925 142.95 50.1869 142.838 50.2501L121.298 61.1741C121.158 61.2541 121.051 61.3825 120.999 61.5352C120.947 61.6878 120.952 61.8543 121.013 62.0035L122.767 66.0082C122.802 66.0876 122.854 66.159 122.918 66.2179C122.982 66.2768 123.057 66.3221 123.139 66.3509C123.221 66.3797 123.308 66.3915 123.395 66.3856C123.482 66.3796 123.566 66.356 123.644 66.3163L145.966 55.0605L151.25 52.4301L162.103 46.9563L173.572 41.1743L179.591 38.1649L193.24 31.2929L201.178 27.2882L195.349 33.6152Z" fill="white"/>
<path d="M173.833 44.4445L165.373 48.7098L154.473 54.0652L148.003 57.3353L124.734 69.0414C124.585 69.1133 124.47 69.2397 124.413 69.3942C124.356 69.5487 124.36 69.7194 124.426 69.8707L126.203 73.8754C126.236 73.954 126.285 74.025 126.346 74.0837C126.408 74.1424 126.482 74.1877 126.562 74.2167C126.642 74.2456 126.727 74.2576 126.812 74.2519C126.897 74.2462 126.98 74.2229 127.056 74.1835L152.103 61.7191L160.089 57.7144L162.932 56.269L160.965 58.4017L154.994 64.8471L121.203 101.292C121.14 101.396 121.107 101.515 121.107 101.636C121.107 101.757 121.14 101.876 121.203 101.979L123.027 106.15C123.068 106.25 123.134 106.338 123.218 106.407C123.302 106.475 123.402 106.52 123.508 106.539C123.615 106.558 123.724 106.55 123.827 106.515C123.929 106.48 124.021 106.42 124.094 106.34L149.733 78.5673L158.762 68.8044L165.065 61.9798L172.814 53.615L177.245 48.8757L185.254 40.2028C185.32 40.1545 185.375 40.0939 185.417 40.0243C185.459 39.9548 185.486 39.8777 185.499 39.7973C185.511 39.717 185.507 39.6351 185.487 39.5563C185.468 39.4774 185.433 39.4032 185.385 39.3379C185.336 39.2725 185.276 39.2173 185.206 39.1754C185.137 39.1335 185.059 39.1057 184.979 39.0936C184.899 39.0815 184.817 39.0853 184.738 39.1049C184.659 39.1244 184.585 39.1593 184.52 39.2075L175.041 43.9468L173.833 44.4445Z" fill="white"/>
</g>
<defs>
<filter id="filter0_d_101_129" x="0.551313" y="0.310263" width="232.769" height="210.709" filterUnits="userSpaceOnUse" color-interpolation-filters="sRGB">
<feFlood flood-opacity="0" result="BackgroundImageFix"/>
<feColorMatrix in="SourceAlpha" type="matrix" values="0 0 0 0 0 0 0 0 0 0 0 0 0 0 0 0 0 0 127 0" result="hardAlpha"/>
<feOffset dx="-19.3795" dy="19.3795"/>
<feGaussianBlur stdDeviation="14.5346"/>
<feComposite in2="hardAlpha" operator="out"/>
<feColorMatrix type="matrix" values="0 0 0 0 0 0 0 0 0 0 0 0 0 0 0 0 0 0 0.4 0"/>
<feBlend mode="normal" in2="BackgroundImageFix" result="effect1_dropShadow_101_129"/>
<feBlend mode="normal" in="SourceGraphic" in2="effect1_dropShadow_101_129" result="shape"/>
</filter>
</defs>
</svg>
