<svg width="130" height="130" viewBox="0 0 130 130" fill="none" xmlns="http://www.w3.org/2000/svg">
<path d="M65.3 29C57.5 29 52 30.8 48.9 34.2C45.9 37.6 46.2 41.4 46.2 41.5V41.7V53.8H83.2V40.3C83.2 35.1 78.6 29 65.3 29Z" fill="black"/>
<path d="M0 0V129.1H129.1V0H0ZM95.9 57.5C94.3 59 92.2 59.3 90.4 59.3H88.2C89.2 62.3 89.8 65.6 89.8 68.2V74.6L84.4 73.4V68.2C84.4 65.7 83.6 62.1 82.4 59.3H79.1C80.7 61.9 81.7 65.1 81.7 68.2V72.8L76.3 71.6V68.2C76.3 64.8 74.6 61.3 72 59.3H58.7C56.1 61.3 54.4 64.8 54.4 68.2V81C54.4 83.9 55.6 86.7 57.6 88.8C59.7 90.9 62.5 92.1 65.4 92.1C70.7 92.1 74.5 90.1 75.8 86.7L62.2 83L62.3 82.2C63 79.7 65.5 78.3 68 79L81.7 82.7V83.3L81.6 84.9C81 92.5 74.6 97.4 65.5 97.4H65.4C61.1 97.4 57 95.7 53.9 92.6C50.7 89.4 49 85.2 49 80.7V68.1C49 65.1 49.9 61.9 51.6 59.2H48.3C47.2 61.9 46.4 65.6 46.4 68.1V81.1C46.4 86.5 48.7 91.7 52.8 95.3C56.9 99 62.2 100.6 67.7 100C77.2 98.9 84.5 90.7 84.6 80.7L64.2 76.3L64.4 75.5C64.7 74.3 65.4 73.3 66.4 72.6C67.4 71.9 68.7 71.7 69.9 72L90 76.3V76.9V80.9C90 87.9 87 94.5 81.8 99.2C77.3 103.2 71.5 105.4 65.4 105.4C64.5 105.4 63.5 105.3 62.6 105.2C50.3 103.8 41 93.1 41 80.2V68.1C41 65.6 41.6 62.3 42.6 59.2H38.8C37 59.2 35 59 33.4 57.5L33 57.3C32.2 56.4 31.9 55.1 32.4 54C32.9 52.7 34.2 51.9 35.5 51.9H36.7V52.7C36.7 53.3 36.8 53.6 36.9 53.6C37.2 53.8 38.6 53.8 39.2 53.8H40.8V41.8C40.7 40.8 40.6 35.3 44.9 30.6C49.1 26 55.9 23.6 65.3 23.6C87.9 23.6 88.6 38.6 88.6 40.3V53.8H89.8C90.4 53.8 91.8 53.8 92.1 53.6C92.1 53.6 92.2 53.3 92.2 52.7V52H93.6C94.9 52 96.1 52.8 96.6 54C97.1 55.2 96.9 56.5 95.9 57.5Z" fill="black"/>
</svg>
